<?xml version="1.0" encoding="UTF-8"?>
<svg version="1.1" xmlns="http://www.w3.org/2000/svg" width="314" height="314">
<path d="M0 0 C0.75458496 0.18272461 1.50916992 0.36544922 2.28662109 0.55371094 C20.50211531 5.04399063 38.78150128 12.95195526 54 24 C54.969375 24.67675781 55.93875 25.35351562 56.9375 26.05078125 C87.63536568 48.43464164 108.96322894 81.22568485 118 118 C118.17644043 118.67369629 118.35288086 119.34739258 118.53466797 120.04150391 C123.91933467 141.31867549 123.50701285 168.80541479 118 190 C117.82259277 190.7439502 117.64518555 191.48790039 117.46240234 192.25439453 C110.87370784 219.43066373 96.89968121 243.70065633 77.39208984 263.57275391 C76.09055886 264.90715414 74.81939514 266.27098609 73.55078125 267.63671875 C48.40534238 294.1121643 9.59199841 310.28414919 -26.6328125 311.3828125 C-43.34865051 311.76780882 -59.7745997 311.43959588 -76 307 C-76.86544434 306.76394043 -77.73088867 306.52788086 -78.62255859 306.28466797 C-104.4695153 298.95451075 -126.84115155 285.74295449 -146 267 C-146.85980469 266.19046875 -147.71960938 265.3809375 -148.60546875 264.546875 C-169.40683753 244.55176082 -183.15881676 217.83957087 -190 190 C-190.17644043 189.32630371 -190.35288086 188.65260742 -190.53466797 187.95849609 C-196.29919781 165.1803192 -195.16799738 136.54219286 -189 114 C-188.76394043 113.13455566 -188.52788086 112.26911133 -188.28466797 111.37744141 C-181.0353291 85.81545928 -168.03719095 63.41542042 -149.44384766 44.47900391 C-148.03982351 43.04079317 -146.66584787 41.57343907 -145.29296875 40.10546875 C-134.7921375 29.11265126 -122.41582155 21.02215208 -109 14 C-108.35724121 13.66226562 -107.71448242 13.32453125 -107.05224609 12.9765625 C-95.7884021 7.15166335 -84.28459512 3.10323823 -72 0 C-71.32050293 -0.17934082 -70.64100586 -0.35868164 -69.94091797 -0.54345703 C-48.68479543 -5.91752567 -21.16964261 -5.52251546 0 0 Z " fill="#90A4AE" transform="translate(193,3)"/>
<path d="M0 0 C1.12425385 -0.00708481 2.24850769 -0.01416962 3.40682983 -0.02146912 C4.6308551 -0.0189917 5.85488037 -0.01651428 7.11599731 -0.01396179 C8.41246185 -0.01907272 9.70892639 -0.02418365 11.04467773 -0.02944946 C14.594354 -0.04282112 18.14392367 -0.04342011 21.6936202 -0.04088616 C24.66070189 -0.03981505 27.62776213 -0.04470349 30.59483922 -0.04949158 C37.59735099 -0.06058076 44.59980913 -0.06102772 51.60232544 -0.05497742 C58.8170075 -0.04893944 66.03149445 -0.0612454 73.24614322 -0.08254749 C79.44843787 -0.10018451 85.65067053 -0.10616148 91.85298932 -0.10290974 C95.55375864 -0.10109984 99.25438882 -0.10370355 102.95513535 -0.11762428 C107.0844049 -0.13257608 111.21327948 -0.12321418 115.34255981 -0.11161804 C116.56253662 -0.11926178 117.78251343 -0.12690552 119.03945923 -0.13478088 C126.31300511 -0.08962714 131.85975627 0.20698226 137.5383606 5.16304016 C138.09781372 5.83464172 138.65726685 6.50624329 139.2336731 7.19819641 C139.80859497 7.86721985 140.38351685 8.53624329 140.9758606 9.22554016 C143.20501964 12.50630814 143.48252143 15.68825403 143.5798645 19.58901978 C143.60291656 20.44791306 143.62596863 21.30680634 143.64971924 22.19172668 C143.66968964 23.12625671 143.68966003 24.06078674 143.7102356 25.02363586 C143.73447601 26.01449692 143.75871643 27.00535797 143.78369141 28.02624512 C143.99528969 37.18032448 144.11997027 46.33585351 144.21798706 55.49178791 C144.28491954 61.63468175 144.38039627 67.77412453 144.54519653 73.91523743 C144.70415563 79.86599884 144.78790123 85.81361524 144.82077026 91.76636314 C144.84578534 94.0235673 144.89672775 96.28065188 144.97518921 98.53663063 C145.62096543 117.98917603 145.62096543 117.98917603 137.98477173 126.25553417 C129.64085911 134.26069641 129.64085911 134.26069641 126.3586731 134.26069641 C126.3586731 134.92069641 126.3586731 135.58069641 126.3586731 136.26069641 C125.2092323 137.31594453 124.0067692 138.31375529 122.78347778 139.28242493 C118.89011523 142.5917831 116.1879918 146.08451538 113.34608459 150.30419922 C103.50359023 164.6951069 90.55764783 181.62025219 72.53671265 185.43312073 C59.54286775 187.62150736 46.29780587 187.421442 33.1711731 187.01069641 C32.21348526 186.98216961 31.25579742 186.95364281 30.26908875 186.92425156 C20.53202626 186.61087197 10.80662735 186.09199478 1.10012817 185.25190735 C0.40057133 185.19838576 -0.29898552 185.14486418 -1.01974106 185.08972073 C-8.20056186 184.39452275 -12.97387321 181.70605905 -17.6413269 176.26069641 C-24.17529737 162.85540915 -20.78926786 142.03999061 -20.77565241 127.54792953 C-20.77308637 123.9536747 -20.77547773 120.35942219 -20.77703857 116.76516724 C-20.77884688 110.73966506 -20.77648816 104.71417522 -20.771698 98.68867493 C-20.76624557 91.75054318 -20.76803056 84.81244077 -20.7735244 77.87430972 C-20.77807913 71.87895782 -20.77869494 65.88361469 -20.77608573 59.88826162 C-20.77453749 56.32395243 -20.77428917 52.759657 -20.77762222 49.19534874 C-20.78107827 45.22387445 -20.77627277 41.25243245 -20.77072144 37.28096008 C-20.77375778 35.54056709 -20.77375778 35.54056709 -20.77685547 33.76501465 C-20.72379168 13.1732316 -20.72379168 13.1732316 -16.6413269 7.26069641 C-11.43009725 2.27604196 -7.20505846 0.01517869 0 0 Z " fill="#90A4AE" transform="translate(93.64132690429688,67.73930358886719)"/>
<path d="M0 0 C1.12425385 -0.00708481 2.24850769 -0.01416962 3.40682983 -0.02146912 C4.6308551 -0.0189917 5.85488037 -0.01651428 7.11599731 -0.01396179 C8.41246185 -0.01907272 9.70892639 -0.02418365 11.04467773 -0.02944946 C14.594354 -0.04282112 18.14392367 -0.04342011 21.6936202 -0.04088616 C24.66070189 -0.03981505 27.62776213 -0.04470349 30.59483922 -0.04949158 C37.59735099 -0.06058076 44.59980913 -0.06102772 51.60232544 -0.05497742 C58.8170075 -0.04893944 66.03149445 -0.0612454 73.24614322 -0.08254749 C79.44843787 -0.10018451 85.65067053 -0.10616148 91.85298932 -0.10290974 C95.55375864 -0.10109984 99.25438882 -0.10370355 102.95513535 -0.11762428 C107.0844049 -0.13257608 111.21327948 -0.12321418 115.34255981 -0.11161804 C116.56253662 -0.11926178 117.78251343 -0.12690552 119.03945923 -0.13478088 C126.31300511 -0.08962714 131.85975627 0.20698226 137.5383606 5.16304016 C138.09781372 5.83464172 138.65726685 6.50624329 139.2336731 7.19819641 C139.80859497 7.86721985 140.38351685 8.53624329 140.9758606 9.22554016 C143.20501964 12.50630814 143.48252143 15.68825403 143.5798645 19.58901978 C143.60291656 20.44791306 143.62596863 21.30680634 143.64971924 22.19172668 C143.66968964 23.12625671 143.68966003 24.06078674 143.7102356 25.02363586 C143.73447601 26.01449692 143.75871643 27.00535797 143.78369141 28.02624512 C143.99528969 37.18032448 144.11997027 46.33585351 144.21798706 55.49178791 C144.28491954 61.63468175 144.38039627 67.77412453 144.54519653 73.91523743 C144.70415563 79.86599884 144.78790123 85.81361524 144.82077026 91.76636314 C144.84578534 94.0235673 144.89672775 96.28065188 144.97518921 98.53663063 C145.62096543 117.98917603 145.62096543 117.98917603 137.98477173 126.25553417 C129.64085911 134.26069641 129.64085911 134.26069641 126.3586731 134.26069641 C126.3586731 134.92069641 126.3586731 135.58069641 126.3586731 136.26069641 C125.2092323 137.31594453 124.0067692 138.31375529 122.78347778 139.28242493 C118.89011523 142.5917831 116.1879918 146.08451538 113.34608459 150.30419922 C103.50359023 164.6951069 90.55764783 181.62025219 72.53671265 185.43312073 C59.54286775 187.62150736 46.29780587 187.421442 33.1711731 187.01069641 C32.21348526 186.98216961 31.25579742 186.95364281 30.26908875 186.92425156 C20.53202626 186.61087197 10.80662735 186.09199478 1.10012817 185.25190735 C0.40057133 185.19838576 -0.29898552 185.14486418 -1.01974106 185.08972073 C-8.20056186 184.39452275 -12.97387321 181.70605905 -17.6413269 176.26069641 C-24.17529737 162.85540915 -20.78926786 142.03999061 -20.77565241 127.54792953 C-20.77308637 123.9536747 -20.77547773 120.35942219 -20.77703857 116.76516724 C-20.77884688 110.73966506 -20.77648816 104.71417522 -20.771698 98.68867493 C-20.76624557 91.75054318 -20.76803056 84.81244077 -20.7735244 77.87430972 C-20.77807913 71.87895782 -20.77869494 65.88361469 -20.77608573 59.88826162 C-20.77453749 56.32395243 -20.77428917 52.759657 -20.77762222 49.19534874 C-20.78107827 45.22387445 -20.77627277 41.25243245 -20.77072144 37.28096008 C-20.77375778 35.54056709 -20.77375778 35.54056709 -20.77685547 33.76501465 C-20.72379168 13.1732316 -20.72379168 13.1732316 -16.6413269 7.26069641 C-11.43009725 2.27604196 -7.20505846 0.01517869 0 0 Z M-8.6413269 14.26069641 C-10.01452381 17.00709022 -9.77677684 19.2074926 -9.78849792 22.28276062 C-9.79565323 23.56709488 -9.80280853 24.85142914 -9.81018066 26.17468262 C-9.81302104 27.60618567 -9.81573276 29.03768899 -9.81832886 30.4691925 C-9.82459235 31.97036904 -9.83123905 33.47154402 -9.83824158 34.97271729 C-9.85565995 39.0574425 -9.86620525 43.142156 -9.87444711 47.22690916 C-9.87959468 49.77745614 -9.88567047 52.32799946 -9.89195824 54.87854385 C-9.91101123 62.85447783 -9.92524307 70.83040252 -9.93357021 78.80635488 C-9.94334907 88.02122568 -9.96968494 97.23585668 -10.0100711 106.45064294 C-10.04019864 113.56831106 -10.05503581 120.6859103 -10.05835122 127.80364096 C-10.06070524 132.05717894 -10.06971124 136.31046077 -10.09481239 140.56393051 C-10.11804007 144.56455617 -10.12234802 148.56475606 -10.11205101 152.56543159 C-10.11155426 154.03441977 -10.11791553 155.50342853 -10.13160706 156.97235298 C-10.14924237 158.97637954 -10.13986186 160.9805898 -10.1290741 162.98466492 C-10.13146245 164.10665472 -10.1338508 165.22864452 -10.13631153 166.38463402 C-9.5286381 169.91546431 -8.40387786 171.05773127 -5.6413269 173.26069641 C-2.67911654 174.7418016 0.05033739 174.48692856 3.35598755 174.58052063 C4.43700996 174.61206238 4.43700996 174.61206238 5.53987122 174.64424133 C12.21764808 174.82779268 18.89717428 174.93348263 25.57688618 175.01638603 C30.05878345 175.0728188 34.53706082 175.15393769 39.01712036 175.29634094 C43.35759445 175.43372416 47.69480098 175.50537764 52.03731346 175.53303909 C53.6821402 175.55434411 55.32685256 175.59803287 56.97042274 175.66575241 C64.22636289 175.95073522 70.49597467 176.1844928 76.28503418 171.31300354 C79.57709282 168.1776344 82.45152066 164.75002957 85.3586731 161.26069641 C86.0186731 160.93069641 86.6786731 160.60069641 87.3586731 160.26069641 C87.3586731 159.60069641 87.3586731 158.94069641 87.3586731 158.26069641 C88.0186731 158.26069641 88.6786731 158.26069641 89.3586731 158.26069641 C89.3586731 157.60069641 89.3586731 156.94069641 89.3586731 156.26069641 C90.2210257 155.83869713 90.2210257 155.83869713 91.10079956 155.40817261 C108.10049636 146.76873948 126.87639693 132.94053131 133.3586731 114.26069641 C137.35859774 97.90137343 136.48934273 80.27643416 136.0461731 63.57319641 C136.01830215 62.45756695 135.99043121 61.34193748 135.9617157 60.19250107 C135.65639227 48.81644848 135.15362461 37.44904637 134.33401489 26.09785461 C134.25608389 24.85844321 134.25608389 24.85844321 134.17657852 23.59399319 C133.81212809 19.0984974 133.23023876 15.91989059 130.3586731 12.26069641 C127.01989763 10.0348461 125.95392894 10.00691767 122.05828857 9.99327087 C120.9591362 9.98474091 119.85998383 9.97621094 118.7275238 9.96742249 C116.91806526 9.96878204 116.91806526 9.96878204 115.072052 9.97016907 C113.80192764 9.96345184 112.53180328 9.95673462 111.22319031 9.94981384 C107.73758698 9.9321351 104.25208183 9.92745767 100.76643801 9.92618227 C97.85642883 9.92428332 94.94644253 9.91692579 92.03644216 9.90983808 C85.17020788 9.89354917 78.30402604 9.88866956 71.43777466 9.89009094 C64.35596407 9.89129233 57.27445828 9.87019254 50.19272482 9.83860362 C44.11194253 9.81244659 38.03125981 9.80172341 31.95042169 9.80300176 C28.31893668 9.8035116 24.68772245 9.79781694 21.05629349 9.77664566 C17.00534506 9.75367377 12.95507876 9.76278054 8.90408325 9.77485657 C7.70182602 9.76361755 6.49956879 9.75237854 5.26087952 9.74079895 C-2.57640316 9.66645234 -2.57640316 9.66645234 -8.6413269 14.26069641 Z " fill="#FCFDFD" transform="translate(93.64132690429688,67.73930358886719)"/>
<path d="M0 0 C3.3247945 1.57588004 5.51631617 3.2817149 8.109375 5.9140625 C9.24052734 7.05488281 9.24052734 7.05488281 10.39453125 8.21875 C11.17183594 9.0128125 11.94914062 9.806875 12.75 10.625 C13.93916016 11.82769531 13.93916016 11.82769531 15.15234375 13.0546875 C17.10614493 15.03202846 19.05512103 17.01388909 21 19 C12.87945843 28.77397093 3.84095085 37.74928337 -5.05548 46.81116962 C-8.04972375 49.86205569 -11.03006486 52.92419351 -13.98120117 56.0168457 C-16.85744948 59.03033575 -19.76523543 62.00988634 -22.69700813 64.96935081 C-23.7987344 66.09236341 -24.88924218 67.22651151 -25.96725273 68.37230873 C-32.94205972 75.76520154 -38.42933093 79.26000053 -48.68055725 79.94841003 C-49.77597336 79.96543472 -50.87138947 79.98245941 -52 80 C-53.34444435 80.04408745 -53.34444435 80.04408745 -54.71604919 80.08906555 C-56.4773859 80.11755714 -58.2398984 80.07184088 -60 80 C-59.74986346 76.7688826 -59.47123528 73.54082664 -59.1875 70.3125 C-59.11724609 69.40048828 -59.04699219 68.48847656 -58.97460938 67.54882812 C-58.89404297 66.66259766 -58.81347656 65.77636719 -58.73046875 64.86328125 C-58.62835083 63.64572144 -58.62835083 63.64572144 -58.52416992 62.40356445 C-57.32348668 56.89786974 -53.50378111 53.22113175 -49.6105957 49.38354492 C-48.80526901 48.57778015 -48.80526901 48.57778015 -47.9836731 47.7557373 C-46.21907788 45.9925284 -44.44751902 44.23649792 -42.67578125 42.48046875 C-41.44651888 41.25493899 -40.21769918 40.02896509 -38.98930359 38.80256653 C-35.76330606 35.58418589 -32.53134651 32.37185818 -29.2980957 29.1607666 C-25.996531 25.87970221 -22.70065788 22.59293148 -19.40429688 19.30664062 C-12.94174624 12.8655056 -6.47288083 6.43075267 0 0 Z " fill="#FAFAFB" transform="translate(236,201)"/>
<path d="M0 0 C3.18086518 1.50946511 5.29869906 3.07941825 7.75 5.625 C8.67039062 6.57246094 8.67039062 6.57246094 9.609375 7.5390625 C10.29773438 8.26222656 10.29773438 8.26222656 11 9 C3.52870229 17.96617592 -4.73162484 26.20666665 -12.91582012 34.51607323 C-15.57411728 37.21544237 -18.22166883 39.92374341 -20.84643555 42.65576172 C-23.40527422 45.31871441 -25.98822785 47.95593308 -28.58960915 50.5773201 C-29.56907126 51.57262121 -30.53991776 52.57648472 -31.5013485 53.58921432 C-36.34593047 58.67987281 -39.97403567 62.43973707 -47.18286133 63.11962891 C-48.78905867 63.12546889 -50.39709042 63.10288289 -52 63 C-52.2470401 56.82399746 -51.86030958 52.278714 -47.86129761 47.38027954 C-46.9774942 46.50535858 -46.0936908 45.63043762 -45.18310547 44.72900391 C-44.4511496 43.99617188 -44.4511496 43.99617188 -43.70440674 43.24853516 C-42.10130423 41.64820253 -40.48454107 40.06248 -38.8671875 38.4765625 C-37.74816154 37.36500281 -36.63001987 36.25255224 -35.51272583 35.13925171 C-32.57877061 32.22052228 -29.63300091 29.3140084 -26.68457031 26.40991211 C-23.67438326 23.44074353 -20.67557751 20.46012845 -17.67578125 17.48046875 C-11.79490605 11.64241051 -5.9014947 5.81721357 0 0 Z " fill="#90A4AE" transform="translate(236,211)"/>
<path d="M0 0 C33 0 66 0 100 0 C100 2.31 100 4.62 100 7 C67 7 34 7 0 7 C0 4.69 0 2.38 0 0 Z " fill="#FBFCFC" transform="translate(104,174)"/>
<path d="M0 0 C33 0 66 0 100 0 C100 2.31 100 4.62 100 7 C67 7 34 7 0 7 C0 4.69 0 2.38 0 0 Z " fill="#FAFAFB" transform="translate(105,145)"/>
<path d="M0 0 C33 0 66 0 100 0 C100 2.31 100 4.62 100 7 C67 7 34 7 0 7 C0 4.69 0 2.38 0 0 Z " fill="#FAFAFA" transform="translate(104,118)"/>
<path d="M0 0 C4.74287335 0.86234061 6.72867343 2.83296666 9.94140625 6.2734375 C10.47378906 6.79550781 11.00617188 7.31757813 11.5546875 7.85546875 C14.82085392 11.22136544 16.63205012 13.75140463 16.56640625 18.6484375 C14.77998616 22.66635845 12.00929352 25.42128609 8.87890625 28.4609375 C8.07066406 29.25113281 7.26242187 30.04132813 6.4296875 30.85546875 C5.81480469 31.44714844 5.19992187 32.03882813 4.56640625 32.6484375 C1.30774265 31.2219797 -0.83607915 29.48139588 -3.32421875 26.953125 C-4.03320312 26.23769531 -4.7421875 25.52226562 -5.47265625 24.78515625 C-6.20226562 24.03878906 -6.931875 23.29242188 -7.68359375 22.5234375 C-8.42867187 21.76933594 -9.17375 21.01523438 -9.94140625 20.23828125 C-11.77672795 18.37942978 -13.60721285 16.51606745 -15.43359375 14.6484375 C-13.69410064 10.9567322 -11.57642823 8.36313702 -8.74609375 5.3984375 C-7.91722656 4.50640625 -7.08835938 3.614375 -6.234375 2.6953125 C-3.43359375 0.6484375 -3.43359375 0.6484375 0 0 Z " fill="#FBFBFC" transform="translate(255.43359375,185.3515625)"/>
<path d="M0 0 C0.61875 0.28875 1.2375 0.5775 1.875 0.875 C2.205 1.865 2.535 2.855 2.875 3.875 C3.535 3.875 4.195 3.875 4.875 3.875 C4.875 4.535 4.875 5.195 4.875 5.875 C5.535 5.875 6.195 5.875 6.875 5.875 C6.875 6.535 6.875 7.195 6.875 7.875 C7.535 7.875 8.195 7.875 8.875 7.875 C7.58200306 10.75937779 6.21558637 12.74719421 3.875 14.875 C-0.11382376 13.34083702 -3.77283382 10.4502926 -6.125 6.875 C-5.82601273 4.38499666 -5.28568488 3.09689817 -3.8125 1.0625 C-2.125 -0.125 -2.125 -0.125 0 0 Z " fill="#92A6AF" transform="translate(256.125,193.125)"/>
</svg>
